<svg xmlns="http://www.w3.org/2000/svg" xmlns:xlink="http://www.w3.org/1999/xlink" width="500" zoomAndPan="magnify" viewBox="0 0 375 374.999991" height="500" preserveAspectRatio="xMidYMid meet" version="1.2"><defs><clipPath id="a12b6ed8d7"><path d="M 52 174 L 129.832031 174 L 129.832031 216.570312 L 52 216.570312 Z M 52 174 "/></clipPath><clipPath id="4c9d7d4295"><path d="M 129.753906 195.320312 C 129.753906 207.054688 120.265625 216.5625 108.5625 216.5625 L 52.738281 216.5625 C 83.457031 216.5625 105.539062 186.289062 105.558594 174.296875 C 106.539062 174.15625 107.542969 174.082031 108.5625 174.082031 C 120.265625 174.082031 129.753906 183.59375 129.753906 195.320312 Z M 129.753906 195.320312 "/></clipPath><linearGradient x1="539.354237" gradientTransform="matrix(0.224864,0,0,0.225403,12.900357,145.320537)" y1="165.181165" x2="193.190102" gradientUnits="userSpaceOnUse" y2="346.638227" id="9cdadc22bf"><stop style="stop-color:#cf24dd;stop-opacity:1;" offset="0"/><stop style="stop-color:#cf24dd;stop-opacity:1;" offset="0.125"/><stop style="stop-color:#cf24dd;stop-opacity:1;" offset="0.15625"/><stop style="stop-color:#cf24dd;stop-opacity:1;" offset="0.171875"/><stop style="stop-color:#ce24dd;stop-opacity:1;" offset="0.175781"/><stop style="stop-color:#ce24dd;stop-opacity:1;" offset="0.179688"/><stop style="stop-color:#cd25dd;stop-opacity:1;" offset="0.183594"/><stop style="stop-color:#cc25dd;stop-opacity:1;" offset="0.1875"/><stop style="stop-color:#cb25dd;stop-opacity:1;" offset="0.191406"/><stop style="stop-color:#cb26dd;stop-opacity:1;" offset="0.195313"/><stop style="stop-color:#ca26dd;stop-opacity:1;" offset="0.199219"/><stop style="stop-color:#c926dd;stop-opacity:1;" offset="0.203125"/><stop style="stop-color:#c827dd;stop-opacity:1;" offset="0.207031"/><stop style="stop-color:#c727dd;stop-opacity:1;" offset="0.210938"/><stop style="stop-color:#c627dd;stop-opacity:1;" offset="0.214844"/><stop style="stop-color:#c628dd;stop-opacity:1;" offset="0.21875"/><stop style="stop-color:#c528dd;stop-opacity:1;" offset="0.222656"/><stop style="stop-color:#c428dd;stop-opacity:1;" offset="0.226563"/><stop style="stop-color:#c329dc;stop-opacity:1;" offset="0.230469"/><stop style="stop-color:#c229dc;stop-opacity:1;" offset="0.234375"/><stop style="stop-color:#c129dc;stop-opacity:1;" offset="0.238281"/><stop style="stop-color:#c02adc;stop-opacity:1;" offset="0.242188"/><stop style="stop-color:#c02adc;stop-opacity:1;" offset="0.246094"/><stop style="stop-color:#bf2adc;stop-opacity:1;" offset="0.25"/><stop style="stop-color:#be2bdc;stop-opacity:1;" offset="0.253906"/><stop style="stop-color:#bd2bdc;stop-opacity:1;" offset="0.257812"/><stop style="stop-color:#bc2bdc;stop-opacity:1;" offset="0.261719"/><stop style="stop-color:#bb2cdc;stop-opacity:1;" offset="0.265625"/><stop style="stop-color:#bb2cdc;stop-opacity:1;" offset="0.269531"/><stop style="stop-color:#ba2cdc;stop-opacity:1;" offset="0.273438"/><stop style="stop-color:#b92ddc;stop-opacity:1;" offset="0.277344"/><stop style="stop-color:#b82ddc;stop-opacity:1;" offset="0.28125"/><stop style="stop-color:#b72ddc;stop-opacity:1;" offset="0.285156"/><stop style="stop-color:#b62edc;stop-opacity:1;" offset="0.289063"/><stop style="stop-color:#b52edc;stop-opacity:1;" offset="0.292969"/><stop style="stop-color:#b52edc;stop-opacity:1;" offset="0.296875"/><stop style="stop-color:#b42fdc;stop-opacity:1;" offset="0.300781"/><stop style="stop-color:#b32fdc;stop-opacity:1;" offset="0.304688"/><stop style="stop-color:#b22fdc;stop-opacity:1;" offset="0.308594"/><stop style="stop-color:#b130dc;stop-opacity:1;" offset="0.3125"/><stop style="stop-color:#b030dc;stop-opacity:1;" offset="0.316406"/><stop style="stop-color:#b030dc;stop-opacity:1;" offset="0.320312"/><stop style="stop-color:#af31dc;stop-opacity:1;" offset="0.324219"/><stop style="stop-color:#ae31dc;stop-opacity:1;" offset="0.328125"/><stop style="stop-color:#ad31db;stop-opacity:1;" offset="0.332031"/><stop style="stop-color:#ac32db;stop-opacity:1;" offset="0.335938"/><stop style="stop-color:#ab32db;stop-opacity:1;" offset="0.339844"/><stop style="stop-color:#ab32db;stop-opacity:1;" offset="0.34375"/><stop style="stop-color:#aa33db;stop-opacity:1;" offset="0.347656"/><stop style="stop-color:#a933db;stop-opacity:1;" offset="0.351562"/><stop style="stop-color:#a833db;stop-opacity:1;" offset="0.355469"/><stop style="stop-color:#a734db;stop-opacity:1;" offset="0.359375"/><stop style="stop-color:#a634db;stop-opacity:1;" offset="0.363281"/><stop style="stop-color:#a534db;stop-opacity:1;" offset="0.367188"/><stop style="stop-color:#a535db;stop-opacity:1;" offset="0.371094"/><stop style="stop-color:#a435db;stop-opacity:1;" offset="0.375"/><stop style="stop-color:#a335db;stop-opacity:1;" offset="0.378906"/><stop style="stop-color:#a236db;stop-opacity:1;" offset="0.382813"/><stop style="stop-color:#a136db;stop-opacity:1;" offset="0.386719"/><stop style="stop-color:#a036db;stop-opacity:1;" offset="0.390625"/><stop style="stop-color:#a037db;stop-opacity:1;" offset="0.394531"/><stop style="stop-color:#9f37db;stop-opacity:1;" offset="0.398438"/><stop style="stop-color:#9e37db;stop-opacity:1;" offset="0.402344"/><stop style="stop-color:#9d38db;stop-opacity:1;" offset="0.40625"/><stop style="stop-color:#9c38db;stop-opacity:1;" offset="0.410156"/><stop style="stop-color:#9b38db;stop-opacity:1;" offset="0.414063"/><stop style="stop-color:#9b39db;stop-opacity:1;" offset="0.417969"/><stop style="stop-color:#9a39db;stop-opacity:1;" offset="0.421875"/><stop style="stop-color:#9939db;stop-opacity:1;" offset="0.425781"/><stop style="stop-color:#983adb;stop-opacity:1;" offset="0.429688"/><stop style="stop-color:#973adb;stop-opacity:1;" offset="0.433594"/><stop style="stop-color:#963ada;stop-opacity:1;" offset="0.4375"/><stop style="stop-color:#953bda;stop-opacity:1;" offset="0.441406"/><stop style="stop-color:#953bda;stop-opacity:1;" offset="0.445313"/><stop style="stop-color:#943bda;stop-opacity:1;" offset="0.449219"/><stop style="stop-color:#933cda;stop-opacity:1;" offset="0.453125"/><stop style="stop-color:#923cda;stop-opacity:1;" offset="0.457031"/><stop style="stop-color:#913cda;stop-opacity:1;" offset="0.460938"/><stop style="stop-color:#903dda;stop-opacity:1;" offset="0.464844"/><stop style="stop-color:#903dda;stop-opacity:1;" offset="0.46875"/><stop style="stop-color:#8f3eda;stop-opacity:1;" offset="0.472656"/><stop style="stop-color:#8e3eda;stop-opacity:1;" offset="0.476562"/><stop style="stop-color:#8d3eda;stop-opacity:1;" offset="0.480469"/><stop style="stop-color:#8c3fda;stop-opacity:1;" offset="0.484375"/><stop style="stop-color:#8b3fda;stop-opacity:1;" offset="0.488281"/><stop style="stop-color:#8a3fda;stop-opacity:1;" offset="0.492188"/><stop style="stop-color:#8a40da;stop-opacity:1;" offset="0.496094"/><stop style="stop-color:#8940da;stop-opacity:1;" offset="0.5"/><stop style="stop-color:#8840da;stop-opacity:1;" offset="0.503906"/><stop style="stop-color:#8741da;stop-opacity:1;" offset="0.507813"/><stop style="stop-color:#8641da;stop-opacity:1;" offset="0.511719"/><stop style="stop-color:#8541da;stop-opacity:1;" offset="0.515625"/><stop style="stop-color:#8542da;stop-opacity:1;" offset="0.519531"/><stop style="stop-color:#8442da;stop-opacity:1;" offset="0.523438"/><stop style="stop-color:#8342da;stop-opacity:1;" offset="0.527344"/><stop style="stop-color:#8243da;stop-opacity:1;" offset="0.53125"/><stop style="stop-color:#8143da;stop-opacity:1;" offset="0.535156"/><stop style="stop-color:#8043d9;stop-opacity:1;" offset="0.539062"/><stop style="stop-color:#8044d9;stop-opacity:1;" offset="0.542969"/><stop style="stop-color:#7f44d9;stop-opacity:1;" offset="0.546875"/><stop style="stop-color:#7e44d9;stop-opacity:1;" offset="0.550781"/><stop style="stop-color:#7d45d9;stop-opacity:1;" offset="0.554688"/><stop style="stop-color:#7c45d9;stop-opacity:1;" offset="0.558594"/><stop style="stop-color:#7b45d9;stop-opacity:1;" offset="0.5625"/><stop style="stop-color:#7a46d9;stop-opacity:1;" offset="0.566406"/><stop style="stop-color:#7a46d9;stop-opacity:1;" offset="0.570312"/><stop style="stop-color:#7946d9;stop-opacity:1;" offset="0.574219"/><stop style="stop-color:#7847d9;stop-opacity:1;" offset="0.578125"/><stop style="stop-color:#7747d9;stop-opacity:1;" offset="0.582031"/><stop style="stop-color:#7647d9;stop-opacity:1;" offset="0.585938"/><stop style="stop-color:#7548d9;stop-opacity:1;" offset="0.589844"/><stop style="stop-color:#7548d9;stop-opacity:1;" offset="0.59375"/><stop style="stop-color:#7448d9;stop-opacity:1;" offset="0.597656"/><stop style="stop-color:#7349d9;stop-opacity:1;" offset="0.601563"/><stop style="stop-color:#7249d9;stop-opacity:1;" offset="0.605469"/><stop style="stop-color:#7149d9;stop-opacity:1;" offset="0.609375"/><stop style="stop-color:#704ad9;stop-opacity:1;" offset="0.613281"/><stop style="stop-color:#704ad9;stop-opacity:1;" offset="0.617188"/><stop style="stop-color:#6f4ad9;stop-opacity:1;" offset="0.621094"/><stop style="stop-color:#6e4bd9;stop-opacity:1;" offset="0.625"/><stop style="stop-color:#6d4bd9;stop-opacity:1;" offset="0.628906"/><stop style="stop-color:#6c4bd9;stop-opacity:1;" offset="0.632812"/><stop style="stop-color:#6b4cd9;stop-opacity:1;" offset="0.636719"/><stop style="stop-color:#6a4cd9;stop-opacity:1;" offset="0.640625"/><stop style="stop-color:#6a4cd8;stop-opacity:1;" offset="0.644531"/><stop style="stop-color:#694dd8;stop-opacity:1;" offset="0.648438"/><stop style="stop-color:#684dd8;stop-opacity:1;" offset="0.652344"/><stop style="stop-color:#674dd8;stop-opacity:1;" offset="0.65625"/><stop style="stop-color:#664ed8;stop-opacity:1;" offset="0.660156"/><stop style="stop-color:#654ed8;stop-opacity:1;" offset="0.664062"/><stop style="stop-color:#654ed8;stop-opacity:1;" offset="0.667969"/><stop style="stop-color:#644fd8;stop-opacity:1;" offset="0.671875"/><stop style="stop-color:#634fd8;stop-opacity:1;" offset="0.675781"/><stop style="stop-color:#624fd8;stop-opacity:1;" offset="0.679688"/><stop style="stop-color:#6150d8;stop-opacity:1;" offset="0.683594"/><stop style="stop-color:#6050d8;stop-opacity:1;" offset="0.6875"/><stop style="stop-color:#6050d8;stop-opacity:1;" offset="0.691406"/><stop style="stop-color:#5f51d8;stop-opacity:1;" offset="0.695313"/><stop style="stop-color:#5e51d8;stop-opacity:1;" offset="0.699219"/><stop style="stop-color:#5d51d8;stop-opacity:1;" offset="0.703125"/><stop style="stop-color:#5c52d8;stop-opacity:1;" offset="0.707031"/><stop style="stop-color:#5b52d8;stop-opacity:1;" offset="0.710938"/><stop style="stop-color:#5a52d8;stop-opacity:1;" offset="0.714844"/><stop style="stop-color:#5a53d8;stop-opacity:1;" offset="0.71875"/><stop style="stop-color:#5953d8;stop-opacity:1;" offset="0.722656"/><stop style="stop-color:#5853d8;stop-opacity:1;" offset="0.726563"/><stop style="stop-color:#5754d8;stop-opacity:1;" offset="0.730469"/><stop style="stop-color:#5654d8;stop-opacity:1;" offset="0.734375"/><stop style="stop-color:#5554d8;stop-opacity:1;" offset="0.738281"/><stop style="stop-color:#5555d8;stop-opacity:1;" offset="0.742188"/><stop style="stop-color:#5455d7;stop-opacity:1;" offset="0.746094"/><stop style="stop-color:#5355d7;stop-opacity:1;" offset="0.75"/><stop style="stop-color:#5256d7;stop-opacity:1;" offset="0.753906"/><stop style="stop-color:#5156d7;stop-opacity:1;" offset="0.757813"/><stop style="stop-color:#5056d7;stop-opacity:1;" offset="0.761719"/><stop style="stop-color:#4f57d7;stop-opacity:1;" offset="0.765625"/><stop style="stop-color:#4f57d7;stop-opacity:1;" offset="0.769531"/><stop style="stop-color:#4e57d7;stop-opacity:1;" offset="0.773438"/><stop style="stop-color:#4d58d7;stop-opacity:1;" offset="0.777344"/><stop style="stop-color:#4c58d7;stop-opacity:1;" offset="0.78125"/><stop style="stop-color:#4b58d7;stop-opacity:1;" offset="0.785156"/><stop style="stop-color:#4a59d7;stop-opacity:1;" offset="0.789062"/><stop style="stop-color:#4a59d7;stop-opacity:1;" offset="0.792969"/><stop style="stop-color:#4959d7;stop-opacity:1;" offset="0.796875"/><stop style="stop-color:#485ad7;stop-opacity:1;" offset="0.800781"/><stop style="stop-color:#475ad7;stop-opacity:1;" offset="0.804688"/><stop style="stop-color:#465ad7;stop-opacity:1;" offset="0.808594"/><stop style="stop-color:#455bd7;stop-opacity:1;" offset="0.8125"/><stop style="stop-color:#455bd7;stop-opacity:1;" offset="0.816406"/><stop style="stop-color:#445bd7;stop-opacity:1;" offset="0.820313"/><stop style="stop-color:#435cd7;stop-opacity:1;" offset="0.824219"/><stop style="stop-color:#425cd7;stop-opacity:1;" offset="0.828125"/><stop style="stop-color:#415cd7;stop-opacity:1;" offset="0.832031"/><stop style="stop-color:#405dd7;stop-opacity:1;" offset="0.835938"/><stop style="stop-color:#3f5dd7;stop-opacity:1;" offset="0.839844"/><stop style="stop-color:#3f5dd7;stop-opacity:1;" offset="0.84375"/><stop style="stop-color:#3e5ed7;stop-opacity:1;" offset="0.847656"/><stop style="stop-color:#3d5ed6;stop-opacity:1;" offset="0.851563"/><stop style="stop-color:#3c5ed6;stop-opacity:1;" offset="0.855469"/><stop style="stop-color:#3b5fd6;stop-opacity:1;" offset="0.859375"/><stop style="stop-color:#3a5fd6;stop-opacity:1;" offset="0.863281"/><stop style="stop-color:#3a5fd6;stop-opacity:1;" offset="0.867188"/><stop style="stop-color:#3960d6;stop-opacity:1;" offset="0.871094"/><stop style="stop-color:#3860d6;stop-opacity:1;" offset="0.875"/><stop style="stop-color:#3760d6;stop-opacity:1;" offset="0.878906"/><stop style="stop-color:#3661d6;stop-opacity:1;" offset="0.882812"/><stop style="stop-color:#3561d6;stop-opacity:1;" offset="0.886719"/><stop style="stop-color:#3561d6;stop-opacity:1;" offset="0.890625"/><stop style="stop-color:#3462d6;stop-opacity:1;" offset="0.894531"/><stop style="stop-color:#3362d6;stop-opacity:1;" offset="0.898438"/><stop style="stop-color:#3262d6;stop-opacity:1;" offset="0.902344"/><stop style="stop-color:#3163d6;stop-opacity:1;" offset="0.90625"/><stop style="stop-color:#3063d6;stop-opacity:1;" offset="0.910156"/><stop style="stop-color:#2f63d6;stop-opacity:1;" offset="0.914062"/><stop style="stop-color:#2f64d6;stop-opacity:1;" offset="0.917969"/><stop style="stop-color:#2e64d6;stop-opacity:1;" offset="0.921875"/><stop style="stop-color:#2d64d6;stop-opacity:1;" offset="0.925781"/><stop style="stop-color:#2c65d6;stop-opacity:1;" offset="0.929688"/><stop style="stop-color:#2b65d6;stop-opacity:1;" offset="0.933594"/><stop style="stop-color:#2a65d6;stop-opacity:1;" offset="0.9375"/><stop style="stop-color:#2a66d6;stop-opacity:1;" offset="0.941406"/><stop style="stop-color:#2966d6;stop-opacity:1;" offset="0.945312"/><stop style="stop-color:#2866d6;stop-opacity:1;" offset="0.949219"/><stop style="stop-color:#2767d5;stop-opacity:1;" offset="0.953125"/><stop style="stop-color:#2667d5;stop-opacity:1;" offset="0.957031"/><stop style="stop-color:#2567d5;stop-opacity:1;" offset="0.960938"/><stop style="stop-color:#2568d5;stop-opacity:1;" offset="0.964844"/><stop style="stop-color:#2468d5;stop-opacity:1;" offset="0.96875"/><stop style="stop-color:#2368d5;stop-opacity:1;" offset="0.972656"/><stop style="stop-color:#2269d5;stop-opacity:1;" offset="0.976562"/><stop style="stop-color:#2169d5;stop-opacity:1;" offset="0.980469"/><stop style="stop-color:#2069d5;stop-opacity:1;" offset="0.984375"/><stop style="stop-color:#1f6ad5;stop-opacity:1;" offset="0.988281"/><stop style="stop-color:#1f6ad5;stop-opacity:1;" offset="0.992188"/><stop style="stop-color:#1e6ad5;stop-opacity:1;" offset="0.996094"/><stop style="stop-color:#1d6bd5;stop-opacity:1;" offset="1"/></linearGradient><clipPath id="c606cca228"><path d="M 39.898438 208.023438 L 48.417969 208.023438 L 48.417969 216.5625 L 39.898438 216.5625 Z M 39.898438 208.023438 "/></clipPath><linearGradient x1="157.955373" gradientTransform="matrix(0.224864,0,0,0.225403,12.900357,145.320537)" y1="278.185368" x2="120.067445" gradientUnits="userSpaceOnUse" y2="316.073423" id="9822aec880"><stop style="stop-color:#1c5fd0;stop-opacity:1;" offset="0"/><stop style="stop-color:#1c5fd0;stop-opacity:1;" offset="0.0625"/><stop style="stop-color:#1b5ed0;stop-opacity:1;" offset="0.125"/><stop style="stop-color:#1b5dcf;stop-opacity:1;" offset="0.1875"/><stop style="stop-color:#1b5ccf;stop-opacity:1;" offset="0.25"/><stop style="stop-color:#1b5cce;stop-opacity:1;" offset="0.3125"/><stop style="stop-color:#1b5bce;stop-opacity:1;" offset="0.375"/><stop style="stop-color:#1b5ace;stop-opacity:1;" offset="0.4375"/><stop style="stop-color:#1b59cd;stop-opacity:1;" offset="0.499988"/><stop style="stop-color:#1b58cd;stop-opacity:1;" offset="0.5"/><stop style="stop-color:#1b58cd;stop-opacity:1;" offset="0.500012"/><stop style="stop-color:#1b58cd;stop-opacity:1;" offset="0.5625"/><stop style="stop-color:#1b57cd;stop-opacity:1;" offset="0.625"/><stop style="stop-color:#1b56cc;stop-opacity:1;" offset="0.6875"/><stop style="stop-color:#1b55cc;stop-opacity:1;" offset="0.75"/><stop style="stop-color:#1b55cb;stop-opacity:1;" offset="0.8125"/><stop style="stop-color:#1b54cb;stop-opacity:1;" offset="0.875"/><stop style="stop-color:#1b53cb;stop-opacity:1;" offset="0.9375"/><stop style="stop-color:#1b52ca;stop-opacity:1;" offset="1"/></linearGradient><clipPath id="4896c8349e"><path d="M 14.128906 197.078125 L 22.171875 197.078125 L 22.171875 203.933594 L 14.128906 203.933594 Z M 14.128906 203.933594 L 33.539062 203.933594 L 33.539062 205.136719 L 14.128906 205.136719 Z M 20.941406 205.136719 L 33.539062 205.136719 L 33.539062 216.5625 L 20.941406 216.5625 Z M 20.941406 205.136719 "/></clipPath><linearGradient x1="91.818003" gradientTransform="matrix(0.224864,0,0,0.225403,12.900357,145.320537)" y1="229.656992" x2="5.436004" gradientUnits="userSpaceOnUse" y2="316.038986" id="1a513ae160"><stop style="stop-color:#1b5ccf;stop-opacity:1;" offset="0"/><stop style="stop-color:#1b5ccf;stop-opacity:1;" offset="0.015625"/><stop style="stop-color:#1b5bce;stop-opacity:1;" offset="0.03125"/><stop style="stop-color:#1b5bce;stop-opacity:1;" offset="0.046875"/><stop style="stop-color:#1b5ace;stop-opacity:1;" offset="0.0625"/><stop style="stop-color:#1b5ace;stop-opacity:1;" offset="0.078125"/><stop style="stop-color:#1b59ce;stop-opacity:1;" offset="0.09375"/><stop style="stop-color:#1b59cd;stop-opacity:1;" offset="0.125"/><stop style="stop-color:#1b58cd;stop-opacity:1;" offset="0.140625"/><stop style="stop-color:#1b57cd;stop-opacity:1;" offset="0.15625"/><stop style="stop-color:#1b57cd;stop-opacity:1;" offset="0.171875"/><stop style="stop-color:#1b56cc;stop-opacity:1;" offset="0.1875"/><stop style="stop-color:#1b56cc;stop-opacity:1;" offset="0.203125"/><stop style="stop-color:#1b55cc;stop-opacity:1;" offset="0.21875"/><stop style="stop-color:#1b55cc;stop-opacity:1;" offset="0.234375"/><stop style="stop-color:#1b54cb;stop-opacity:1;" offset="0.25"/><stop style="stop-color:#1b54cb;stop-opacity:1;" offset="0.265625"/><stop style="stop-color:#1b53cb;stop-opacity:1;" offset="0.28125"/><stop style="stop-color:#1b53cb;stop-opacity:1;" offset="0.296875"/><stop style="stop-color:#1b52cb;stop-opacity:1;" offset="0.3125"/><stop style="stop-color:#1b52ca;stop-opacity:1;" offset="0.328125"/><stop style="stop-color:#1b51ca;stop-opacity:1;" offset="0.34375"/><stop style="stop-color:#1b51ca;stop-opacity:1;" offset="0.359375"/><stop style="stop-color:#1b50ca;stop-opacity:1;" offset="0.375"/><stop style="stop-color:#1b50c9;stop-opacity:1;" offset="0.40625"/><stop style="stop-color:#1b4fc9;stop-opacity:1;" offset="0.421875"/><stop style="stop-color:#1b4ec9;stop-opacity:1;" offset="0.4375"/><stop style="stop-color:#1b4ec9;stop-opacity:1;" offset="0.453125"/><stop style="stop-color:#1b4dc8;stop-opacity:1;" offset="0.46875"/><stop style="stop-color:#1b4dc8;stop-opacity:1;" offset="0.484375"/><stop style="stop-color:#1b4cc8;stop-opacity:1;" offset="0.499606"/><stop style="stop-color:#1b4cc8;stop-opacity:1;" offset="0.5"/><stop style="stop-color:#1b4cc8;stop-opacity:1;" offset="0.500394"/><stop style="stop-color:#1b4cc8;stop-opacity:1;" offset="0.515625"/><stop style="stop-color:#1b4bc8;stop-opacity:1;" offset="0.53125"/><stop style="stop-color:#1b4bc7;stop-opacity:1;" offset="0.546875"/><stop style="stop-color:#1b4ac7;stop-opacity:1;" offset="0.5625"/><stop style="stop-color:#1b4ac7;stop-opacity:1;" offset="0.578125"/><stop style="stop-color:#1b49c7;stop-opacity:1;" offset="0.59375"/><stop style="stop-color:#1b49c7;stop-opacity:1;" offset="0.609375"/><stop style="stop-color:#1b48c6;stop-opacity:1;" offset="0.625"/><stop style="stop-color:#1b48c6;stop-opacity:1;" offset="0.640625"/><stop style="stop-color:#1b47c6;stop-opacity:1;" offset="0.65625"/><stop style="stop-color:#1b47c6;stop-opacity:1;" offset="0.6875"/><stop style="stop-color:#1b46c5;stop-opacity:1;" offset="0.703125"/><stop style="stop-color:#1b45c5;stop-opacity:1;" offset="0.71875"/><stop style="stop-color:#1b45c5;stop-opacity:1;" offset="0.734375"/><stop style="stop-color:#1b44c5;stop-opacity:1;" offset="0.75"/><stop style="stop-color:#1b44c4;stop-opacity:1;" offset="0.765625"/><stop style="stop-color:#1b43c4;stop-opacity:1;" offset="0.78125"/><stop style="stop-color:#1b43c4;stop-opacity:1;" offset="0.8125"/><stop style="stop-color:#1b43c4;stop-opacity:1;" offset="0.875"/><stop style="stop-color:#1b43c4;stop-opacity:1;" offset="1"/></linearGradient><clipPath id="5c8efed974"><path d="M 24.261719 193.046875 L 31.097656 193.046875 L 31.097656 199.90625 L 24.261719 199.90625 Z M 24.261719 193.046875 "/></clipPath><linearGradient x1="80.934382" gradientTransform="matrix(0.224864,0,0,0.225403,12.900357,145.320537)" y1="211.74637" x2="50.516934" gradientUnits="userSpaceOnUse" y2="242.163919" id="29d700bcc7"><stop style="stop-color:#1b5ecf;stop-opacity:1;" offset="0"/><stop style="stop-color:#1b5dcf;stop-opacity:1;" offset="0.0625"/><stop style="stop-color:#1b5ccf;stop-opacity:1;" offset="0.125"/><stop style="stop-color:#1b5ccf;stop-opacity:1;" offset="0.1875"/><stop style="stop-color:#1b5bce;stop-opacity:1;" offset="0.25"/><stop style="stop-color:#1b5ace;stop-opacity:1;" offset="0.3125"/><stop style="stop-color:#1b5ace;stop-opacity:1;" offset="0.375"/><stop style="stop-color:#1b59cd;stop-opacity:1;" offset="0.4375"/><stop style="stop-color:#1b58cd;stop-opacity:1;" offset="0.499991"/><stop style="stop-color:#1b58cd;stop-opacity:1;" offset="0.5"/><stop style="stop-color:#1b58cd;stop-opacity:1;" offset="0.500009"/><stop style="stop-color:#1b57cd;stop-opacity:1;" offset="0.5625"/><stop style="stop-color:#1b57cc;stop-opacity:1;" offset="0.625"/><stop style="stop-color:#1b56cc;stop-opacity:1;" offset="0.6875"/><stop style="stop-color:#1b55cc;stop-opacity:1;" offset="0.75"/><stop style="stop-color:#1b55cc;stop-opacity:1;" offset="0.8125"/><stop style="stop-color:#1b54cb;stop-opacity:1;" offset="0.875"/><stop style="stop-color:#1b53cb;stop-opacity:1;" offset="0.9375"/><stop style="stop-color:#1b53cb;stop-opacity:1;" offset="1"/></linearGradient><clipPath id="dacb831d67"><path d="M 13.769531 189.066406 L 18.148438 189.066406 L 18.148438 193.457031 L 13.769531 193.457031 Z M 13.769531 189.066406 "/></clipPath><linearGradient x1="23.346422" gradientTransform="matrix(0.224864,0,0,0.225403,12.900357,145.320537)" y1="194.078405" x2="3.868956" gradientUnits="userSpaceOnUse" y2="213.555936" id="aa9c29496b"><stop style="stop-color:#1b56cc;stop-opacity:1;" offset="0"/><stop style="stop-color:#1b56cc;stop-opacity:1;" offset="0.125"/><stop style="stop-color:#1b55cc;stop-opacity:1;" offset="0.25"/><stop style="stop-color:#1b54cb;stop-opacity:1;" offset="0.375"/><stop style="stop-color:#1b53cb;stop-opacity:1;" offset="0.499986"/><stop style="stop-color:#1b53cb;stop-opacity:1;" offset="0.5"/><stop style="stop-color:#1b52ca;stop-opacity:1;" offset="0.500014"/><stop style="stop-color:#1b52ca;stop-opacity:1;" offset="0.625"/><stop style="stop-color:#1b51ca;stop-opacity:1;" offset="0.75"/><stop style="stop-color:#1b50ca;stop-opacity:1;" offset="0.875"/><stop style="stop-color:#1b4fc9;stop-opacity:1;" offset="1"/></linearGradient><clipPath id="87fe4a6a8c"><path d="M 12.898438 208.054688 L 17.28125 208.054688 L 17.28125 212.445312 L 12.898438 212.445312 Z M 12.898438 208.054688 "/></clipPath><linearGradient x1="19.477513" gradientTransform="matrix(0.224864,0,0,0.225403,12.900357,145.320537)" y1="278.318487" x2="0.0000157819" gradientUnits="userSpaceOnUse" y2="297.795985" id="aa41e8ed1c"><stop style="stop-color:#1b46c5;stop-opacity:1;" offset="0"/><stop style="stop-color:#1b45c5;stop-opacity:1;" offset="0.125"/><stop style="stop-color:#1b44c5;stop-opacity:1;" offset="0.25"/><stop style="stop-color:#1b44c4;stop-opacity:1;" offset="0.375"/><stop style="stop-color:#1b43c4;stop-opacity:1;" offset="0.499987"/><stop style="stop-color:#1b43c4;stop-opacity:1;" offset="0.5"/><stop style="stop-color:#1b43c4;stop-opacity:1;" offset="0.500013"/><stop style="stop-color:#1b43c4;stop-opacity:1;" offset="1"/></linearGradient><clipPath id="9ae3ed2066"><path d="M 21 145.320312 L 103 145.320312 L 103 214 L 21 214 Z M 21 145.320312 "/></clipPath><clipPath id="4e80663a8b"><path d="M 88.648438 148.886719 C 84.167969 146.851562 79.328125 145.320312 74.070312 145.320312 C 59.265625 145.320312 46.835938 155.527344 43.40625 169.304688 C 32.523438 169.964844 23.628906 178.027344 21.667969 188.535156 L 33.539062 188.535156 L 33.539062 203.933594 L 52.738281 203.933594 L 52.738281 213.699219 C 69.78125 213.699219 82.570312 203.78125 88.675781 197.867188 C 97.773438 189.054688 102.691406 179.144531 102.699219 174.292969 L 102.703125 171.8125 C 102.28125 163.164062 97.003906 152.683594 88.648438 148.886719 Z M 88.648438 148.886719 "/></clipPath><linearGradient x1="393.443499" gradientTransform="matrix(0.224864,0,0,0.225403,12.900357,145.320537)" y1="-5.9275" x2="61.576005" gradientUnits="userSpaceOnUse" y2="325.940006" id="642d6e208f"><stop style="stop-color:#1db1f3;stop-opacity:1;" offset="0"/><stop style="stop-color:#1db1f3;stop-opacity:1;" offset="0.125"/><stop style="stop-color:#1db0f2;stop-opacity:1;" offset="0.132813"/><stop style="stop-color:#1daff2;stop-opacity:1;" offset="0.140625"/><stop style="stop-color:#1daef2;stop-opacity:1;" offset="0.148438"/><stop style="stop-color:#1dadf1;stop-opacity:1;" offset="0.15625"/><stop style="stop-color:#1dacf1;stop-opacity:1;" offset="0.164062"/><stop style="stop-color:#1dabf0;stop-opacity:1;" offset="0.171875"/><stop style="stop-color:#1daaf0;stop-opacity:1;" offset="0.179688"/><stop style="stop-color:#1da9f0;stop-opacity:1;" offset="0.1875"/><stop style="stop-color:#1da8ef;stop-opacity:1;" offset="0.195313"/><stop style="stop-color:#1da7ef;stop-opacity:1;" offset="0.203125"/><stop style="stop-color:#1da6ee;stop-opacity:1;" offset="0.210938"/><stop style="stop-color:#1da5ee;stop-opacity:1;" offset="0.21875"/><stop style="stop-color:#1da4ee;stop-opacity:1;" offset="0.226563"/><stop style="stop-color:#1da3ed;stop-opacity:1;" offset="0.234375"/><stop style="stop-color:#1da2ed;stop-opacity:1;" offset="0.242188"/><stop style="stop-color:#1da1ec;stop-opacity:1;" offset="0.25"/><stop style="stop-color:#1da0ec;stop-opacity:1;" offset="0.257813"/><stop style="stop-color:#1da0ec;stop-opacity:1;" offset="0.265625"/><stop style="stop-color:#1d9feb;stop-opacity:1;" offset="0.273438"/><stop style="stop-color:#1d9eeb;stop-opacity:1;" offset="0.28125"/><stop style="stop-color:#1d9dea;stop-opacity:1;" offset="0.289062"/><stop style="stop-color:#1d9cea;stop-opacity:1;" offset="0.296875"/><stop style="stop-color:#1d9be9;stop-opacity:1;" offset="0.304688"/><stop style="stop-color:#1d9ae9;stop-opacity:1;" offset="0.3125"/><stop style="stop-color:#1d99e9;stop-opacity:1;" offset="0.320312"/><stop style="stop-color:#1d98e8;stop-opacity:1;" offset="0.328125"/><stop style="stop-color:#1d97e8;stop-opacity:1;" offset="0.335938"/><stop style="stop-color:#1d96e7;stop-opacity:1;" offset="0.34375"/><stop style="stop-color:#1c95e7;stop-opacity:1;" offset="0.351563"/><stop style="stop-color:#1c94e7;stop-opacity:1;" offset="0.359375"/><stop style="stop-color:#1c93e6;stop-opacity:1;" offset="0.367188"/><stop style="stop-color:#1c92e6;stop-opacity:1;" offset="0.375"/><stop style="stop-color:#1c91e5;stop-opacity:1;" offset="0.382813"/><stop style="stop-color:#1c90e5;stop-opacity:1;" offset="0.390625"/><stop style="stop-color:#1c8fe5;stop-opacity:1;" offset="0.398438"/><stop style="stop-color:#1c8ee4;stop-opacity:1;" offset="0.40625"/><stop style="stop-color:#1c8de4;stop-opacity:1;" offset="0.414063"/><stop style="stop-color:#1c8ce3;stop-opacity:1;" offset="0.421875"/><stop style="stop-color:#1c8be3;stop-opacity:1;" offset="0.429688"/><stop style="stop-color:#1c8ae2;stop-opacity:1;" offset="0.4375"/><stop style="stop-color:#1c89e2;stop-opacity:1;" offset="0.445312"/><stop style="stop-color:#1c88e2;stop-opacity:1;" offset="0.453125"/><stop style="stop-color:#1c88e1;stop-opacity:1;" offset="0.457051"/><stop style="stop-color:#1c87e1;stop-opacity:1;" offset="0.460938"/><stop style="stop-color:#1c87e1;stop-opacity:1;" offset="0.46875"/><stop style="stop-color:#1c86e0;stop-opacity:1;" offset="0.476563"/><stop style="stop-color:#1c85e0;stop-opacity:1;" offset="0.484375"/><stop style="stop-color:#1c84e0;stop-opacity:1;" offset="0.492188"/><stop style="stop-color:#1c83df;stop-opacity:1;" offset="0.5"/><stop style="stop-color:#1c82df;stop-opacity:1;" offset="0.507812"/><stop style="stop-color:#1c81de;stop-opacity:1;" offset="0.515625"/><stop style="stop-color:#1c80de;stop-opacity:1;" offset="0.523438"/><stop style="stop-color:#1c7fde;stop-opacity:1;" offset="0.53125"/><stop style="stop-color:#1c7edd;stop-opacity:1;" offset="0.539063"/><stop style="stop-color:#1c7ddd;stop-opacity:1;" offset="0.542949"/><stop style="stop-color:#1c7cdd;stop-opacity:1;" offset="0.546875"/><stop style="stop-color:#1c7cdc;stop-opacity:1;" offset="0.554688"/><stop style="stop-color:#1c7bdc;stop-opacity:1;" offset="0.5625"/><stop style="stop-color:#1c7adc;stop-opacity:1;" offset="0.570313"/><stop style="stop-color:#1c79db;stop-opacity:1;" offset="0.578125"/><stop style="stop-color:#1c78db;stop-opacity:1;" offset="0.585938"/><stop style="stop-color:#1c77da;stop-opacity:1;" offset="0.59375"/><stop style="stop-color:#1c76da;stop-opacity:1;" offset="0.601563"/><stop style="stop-color:#1c75d9;stop-opacity:1;" offset="0.609375"/><stop style="stop-color:#1c74d9;stop-opacity:1;" offset="0.617188"/><stop style="stop-color:#1c73d9;stop-opacity:1;" offset="0.625"/><stop style="stop-color:#1c72d8;stop-opacity:1;" offset="0.632812"/><stop style="stop-color:#1c71d8;stop-opacity:1;" offset="0.640625"/><stop style="stop-color:#1c70d7;stop-opacity:1;" offset="0.648438"/><stop style="stop-color:#1c70d7;stop-opacity:1;" offset="0.65625"/><stop style="stop-color:#1c6fd7;stop-opacity:1;" offset="0.664062"/><stop style="stop-color:#1c6ed6;stop-opacity:1;" offset="0.671875"/><stop style="stop-color:#1c6dd6;stop-opacity:1;" offset="0.679688"/><stop style="stop-color:#1c6cd5;stop-opacity:1;" offset="0.6875"/><stop style="stop-color:#1c6bd5;stop-opacity:1;" offset="0.695312"/><stop style="stop-color:#1c6ad5;stop-opacity:1;" offset="0.703125"/><stop style="stop-color:#1c69d4;stop-opacity:1;" offset="0.710938"/><stop style="stop-color:#1c68d4;stop-opacity:1;" offset="0.71875"/><stop style="stop-color:#1c67d3;stop-opacity:1;" offset="0.726562"/><stop style="stop-color:#1c66d3;stop-opacity:1;" offset="0.734375"/><stop style="stop-color:#1c65d2;stop-opacity:1;" offset="0.742187"/><stop style="stop-color:#1c64d2;stop-opacity:1;" offset="0.75"/><stop style="stop-color:#1c63d2;stop-opacity:1;" offset="0.757813"/><stop style="stop-color:#1c62d1;stop-opacity:1;" offset="0.765625"/><stop style="stop-color:#1c61d1;stop-opacity:1;" offset="0.773438"/><stop style="stop-color:#1c60d0;stop-opacity:1;" offset="0.78125"/><stop style="stop-color:#1c5fd0;stop-opacity:1;" offset="0.789062"/><stop style="stop-color:#1b5ed0;stop-opacity:1;" offset="0.796875"/><stop style="stop-color:#1b5dcf;stop-opacity:1;" offset="0.804688"/><stop style="stop-color:#1b5ccf;stop-opacity:1;" offset="0.8125"/><stop style="stop-color:#1b5bce;stop-opacity:1;" offset="0.820312"/><stop style="stop-color:#1b5ace;stop-opacity:1;" offset="0.828125"/><stop style="stop-color:#1b59ce;stop-opacity:1;" offset="0.835938"/><stop style="stop-color:#1b58cd;stop-opacity:1;" offset="0.84375"/><stop style="stop-color:#1b58cd;stop-opacity:1;" offset="0.851562"/><stop style="stop-color:#1b57cc;stop-opacity:1;" offset="0.859375"/><stop style="stop-color:#1b56cc;stop-opacity:1;" offset="0.867188"/><stop style="stop-color:#1b55cc;stop-opacity:1;" offset="0.875"/><stop style="stop-color:#1b54cb;stop-opacity:1;" offset="0.882812"/><stop style="stop-color:#1b53cb;stop-opacity:1;" offset="0.890625"/><stop style="stop-color:#1b52ca;stop-opacity:1;" offset="0.898437"/><stop style="stop-color:#1b51ca;stop-opacity:1;" offset="0.90625"/><stop style="stop-color:#1b50c9;stop-opacity:1;" offset="0.914062"/><stop style="stop-color:#1b4fc9;stop-opacity:1;" offset="0.921875"/><stop style="stop-color:#1b4ec9;stop-opacity:1;" offset="0.929687"/><stop style="stop-color:#1b4dc8;stop-opacity:1;" offset="0.9375"/><stop style="stop-color:#1b4cc8;stop-opacity:1;" offset="0.945313"/><stop style="stop-color:#1b4bc7;stop-opacity:1;" offset="0.953125"/><stop style="stop-color:#1b4ac7;stop-opacity:1;" offset="0.960938"/><stop style="stop-color:#1b49c7;stop-opacity:1;" offset="0.96875"/><stop style="stop-color:#1b48c6;stop-opacity:1;" offset="0.976562"/><stop style="stop-color:#1b47c6;stop-opacity:1;" offset="0.984375"/><stop style="stop-color:#1b46c5;stop-opacity:1;" offset="0.992188"/><stop style="stop-color:#1b45c5;stop-opacity:1;" offset="1"/></linearGradient><clipPath id="4b9c021e96"><rect x="0" width="190" y="0" height="31"/></clipPath></defs><g id="67ee1ca2b4"><g clip-rule="nonzero" clip-path="url(#a12b6ed8d7)"><g clip-rule="nonzero" clip-path="url(#4c9d7d4295)"><path style=" stroke:none;fill-rule:nonzero;fill:url(#9cdadc22bf);" d="M 52.738281 174.082031 L 52.738281 216.5625 L 129.753906 216.5625 L 129.753906 174.082031 Z M 52.738281 174.082031 "/></g></g><g clip-rule="nonzero" clip-path="url(#c606cca228)"><path style=" stroke:none;fill-rule:nonzero;fill:url(#9822aec880);" d="M 39.898438 208.023438 L 39.898438 216.5625 L 48.417969 216.5625 L 48.417969 208.023438 Z M 39.898438 208.023438 "/></g><g clip-rule="nonzero" clip-path="url(#4896c8349e)"><path style=" stroke:none;fill-rule:nonzero;fill:url(#1a513ae160);" d="M 14.128906 197.078125 L 14.128906 216.5625 L 33.539062 216.5625 L 33.539062 197.078125 Z M 14.128906 197.078125 "/></g><g clip-rule="nonzero" clip-path="url(#5c8efed974)"><path style=" stroke:none;fill-rule:nonzero;fill:url(#29d700bcc7);" d="M 24.261719 193.046875 L 24.261719 199.90625 L 31.097656 199.90625 L 31.097656 193.046875 Z M 24.261719 193.046875 "/></g><g clip-rule="nonzero" clip-path="url(#dacb831d67)"><path style=" stroke:none;fill-rule:nonzero;fill:url(#aa9c29496b);" d="M 13.769531 189.066406 L 13.769531 193.457031 L 18.148438 193.457031 L 18.148438 189.066406 Z M 13.769531 189.066406 "/></g><g clip-rule="nonzero" clip-path="url(#87fe4a6a8c)"><path style=" stroke:none;fill-rule:nonzero;fill:url(#aa41e8ed1c);" d="M 12.898438 208.054688 L 12.898438 212.445312 L 17.28125 212.445312 L 17.28125 208.054688 Z M 12.898438 208.054688 "/></g><g clip-rule="nonzero" clip-path="url(#9ae3ed2066)"><g clip-rule="nonzero" clip-path="url(#4e80663a8b)"><path style=" stroke:none;fill-rule:nonzero;fill:url(#642d6e208f);" d="M 21.667969 145.320312 L 21.667969 213.699219 L 102.703125 213.699219 L 102.703125 145.320312 Z M 21.667969 145.320312 "/></g></g><g transform="matrix(1,0,0,1,150,169)"><g clip-path="url(#4b9c021e96)"><g style="fill:#ffffff;fill-opacity:1;"><g transform="translate(0.269004, 22.631989)"><path style="stroke:none" d="M 11.328125 0.234375 C 10.066406 0.234375 8.894531 0.109375 7.8125 -0.140625 C 6.738281 -0.398438 5.769531 -0.78125 4.90625 -1.28125 C 4.050781 -1.789062 3.316406 -2.414062 2.703125 -3.15625 C 2.097656 -3.894531 1.632812 -4.742188 1.3125 -5.703125 C 0.988281 -6.660156 0.828125 -7.726562 0.828125 -8.90625 C 0.828125 -10.070312 0.988281 -11.132812 1.3125 -12.09375 C 1.632812 -13.0625 2.097656 -13.910156 2.703125 -14.640625 C 3.316406 -15.378906 4.050781 -16 4.90625 -16.5 C 5.769531 -17.007812 6.738281 -17.390625 7.8125 -17.640625 C 8.894531 -17.898438 10.066406 -18.03125 11.328125 -18.03125 C 12.597656 -18.03125 13.773438 -17.898438 14.859375 -17.640625 C 15.941406 -17.390625 16.910156 -17.007812 17.765625 -16.5 C 18.628906 -16 19.363281 -15.378906 19.96875 -14.640625 C 20.582031 -13.910156 21.050781 -13.0625 21.375 -12.09375 C 21.695312 -11.132812 21.859375 -10.070312 21.859375 -8.90625 C 21.859375 -7.726562 21.695312 -6.660156 21.375 -5.703125 C 21.050781 -4.742188 20.582031 -3.894531 19.96875 -3.15625 C 19.363281 -2.414062 18.628906 -1.789062 17.765625 -1.28125 C 16.910156 -0.78125 15.941406 -0.398438 14.859375 -0.140625 C 13.773438 0.109375 12.597656 0.234375 11.328125 0.234375 Z M 11.328125 -3.6875 C 12.191406 -3.6875 12.972656 -3.785156 13.671875 -3.984375 C 14.367188 -4.191406 14.960938 -4.503906 15.453125 -4.921875 C 15.953125 -5.347656 16.332031 -5.890625 16.59375 -6.546875 C 16.851562 -7.203125 16.984375 -7.988281 16.984375 -8.90625 C 16.984375 -9.8125 16.851562 -10.59375 16.59375 -11.25 C 16.332031 -11.90625 15.953125 -12.441406 15.453125 -12.859375 C 14.960938 -13.285156 14.367188 -13.597656 13.671875 -13.796875 C 12.972656 -13.992188 12.191406 -14.09375 11.328125 -14.09375 C 10.460938 -14.09375 9.6875 -13.992188 9 -13.796875 C 8.3125 -13.597656 7.722656 -13.285156 7.234375 -12.859375 C 6.742188 -12.441406 6.367188 -11.90625 6.109375 -11.25 C 5.847656 -10.59375 5.71875 -9.8125 5.71875 -8.90625 C 5.71875 -7.988281 5.847656 -7.203125 6.109375 -6.546875 C 6.367188 -5.890625 6.742188 -5.347656 7.234375 -4.921875 C 7.722656 -4.503906 8.3125 -4.191406 9 -3.984375 C 9.6875 -3.785156 10.460938 -3.6875 11.328125 -3.6875 Z M 11.328125 -3.6875 "/></g></g><g style="fill:#ffffff;fill-opacity:1;"><g transform="translate(22.928587, 22.631989)"><path style="stroke:none" d="M 2.03125 0 L 2.03125 -17.796875 L 10.28125 -17.796875 L 13.796875 -6.546875 L 17.359375 -17.796875 L 25.59375 -17.796875 L 25.59375 0 L 20.640625 0 L 20.640625 -13.578125 L 20.421875 -13.578125 L 15.9375 0 L 11.671875 0 L 7.21875 -13.578125 L 6.984375 -13.578125 L 6.984375 0 Z M 2.03125 0 "/></g></g><g style="fill:#ffffff;fill-opacity:1;"><g transform="translate(50.527397, 22.631989)"><path style="stroke:none" d="M 15.5 -17.796875 L 20.515625 -17.796875 L 20.515625 0 L 13.765625 0 L 7.046875 -11.8125 L 7.046875 0 L 2.03125 0 L 2.03125 -17.796875 L 8.8125 -17.796875 L 15.5 -6.0625 Z M 15.5 -17.796875 "/></g></g><g style="fill:#ffffff;fill-opacity:1;"><g transform="translate(73.058237, 22.631989)"><path style="stroke:none" d="M 2.03125 0 L 2.03125 -17.796875 L 7.109375 -17.796875 L 7.109375 0 Z M 2.03125 0 "/></g></g><g style="fill:#ffffff;fill-opacity:1;"><g transform="translate(82.187614, 22.631989)"><path style="stroke:none" d="M 11.328125 0.234375 C 10.066406 0.234375 8.894531 0.109375 7.8125 -0.140625 C 6.738281 -0.398438 5.769531 -0.78125 4.90625 -1.28125 C 4.050781 -1.789062 3.316406 -2.414062 2.703125 -3.15625 C 2.097656 -3.894531 1.632812 -4.742188 1.3125 -5.703125 C 0.988281 -6.660156 0.828125 -7.726562 0.828125 -8.90625 C 0.828125 -10.070312 0.988281 -11.132812 1.3125 -12.09375 C 1.632812 -13.0625 2.097656 -13.910156 2.703125 -14.640625 C 3.316406 -15.378906 4.050781 -16 4.90625 -16.5 C 5.769531 -17.007812 6.738281 -17.390625 7.8125 -17.640625 C 8.894531 -17.898438 10.066406 -18.03125 11.328125 -18.03125 C 12.679688 -18.03125 13.929688 -17.882812 15.078125 -17.59375 C 16.222656 -17.300781 17.238281 -16.867188 18.125 -16.296875 C 19.007812 -15.722656 19.742188 -15.015625 20.328125 -14.171875 C 20.921875 -13.335938 21.34375 -12.375 21.59375 -11.28125 L 16.578125 -11.28125 C 16.316406 -11.925781 15.9375 -12.457031 15.4375 -12.875 C 14.945312 -13.289062 14.351562 -13.597656 13.65625 -13.796875 C 12.96875 -13.992188 12.191406 -14.09375 11.328125 -14.09375 C 10.460938 -14.09375 9.6875 -13.992188 9 -13.796875 C 8.3125 -13.597656 7.722656 -13.285156 7.234375 -12.859375 C 6.742188 -12.441406 6.367188 -11.90625 6.109375 -11.25 C 5.847656 -10.59375 5.71875 -9.8125 5.71875 -8.90625 C 5.71875 -7.988281 5.847656 -7.203125 6.109375 -6.546875 C 6.367188 -5.890625 6.742188 -5.347656 7.234375 -4.921875 C 7.722656 -4.503906 8.3125 -4.191406 9 -3.984375 C 9.6875 -3.785156 10.460938 -3.6875 11.328125 -3.6875 C 12.328125 -3.6875 13.207031 -3.816406 13.96875 -4.078125 C 14.738281 -4.347656 15.367188 -4.765625 15.859375 -5.328125 C 16.347656 -5.890625 16.679688 -6.613281 16.859375 -7.5 L 21.765625 -7.5 C 21.640625 -6.5 21.382812 -5.59375 21 -4.78125 C 20.613281 -3.96875 20.113281 -3.25 19.5 -2.625 C 18.882812 -2 18.160156 -1.472656 17.328125 -1.046875 C 16.503906 -0.628906 15.585938 -0.3125 14.578125 -0.09375 C 13.566406 0.125 12.484375 0.234375 11.328125 0.234375 Z M 11.328125 0.234375 "/></g></g><g style="fill:#ffffff;fill-opacity:1;"><g transform="translate(104.613111, 22.631989)"><path style="stroke:none" d="M 7.109375 -4.046875 L 17.390625 -4.046875 L 17.390625 0 L 2.03125 0 L 2.03125 -17.796875 L 7.109375 -17.796875 Z M 7.109375 -4.046875 "/></g></g><g style="fill:#ffffff;fill-opacity:1;"><g transform="translate(122.415401, 22.631989)"><path style="stroke:none" d="M 11.328125 0.234375 C 10.066406 0.234375 8.894531 0.109375 7.8125 -0.140625 C 6.738281 -0.398438 5.769531 -0.78125 4.90625 -1.28125 C 4.050781 -1.789062 3.316406 -2.414062 2.703125 -3.15625 C 2.097656 -3.894531 1.632812 -4.742188 1.3125 -5.703125 C 0.988281 -6.660156 0.828125 -7.726562 0.828125 -8.90625 C 0.828125 -10.070312 0.988281 -11.132812 1.3125 -12.09375 C 1.632812 -13.0625 2.097656 -13.910156 2.703125 -14.640625 C 3.316406 -15.378906 4.050781 -16 4.90625 -16.5 C 5.769531 -17.007812 6.738281 -17.390625 7.8125 -17.640625 C 8.894531 -17.898438 10.066406 -18.03125 11.328125 -18.03125 C 12.597656 -18.03125 13.773438 -17.898438 14.859375 -17.640625 C 15.941406 -17.390625 16.910156 -17.007812 17.765625 -16.5 C 18.628906 -16 19.363281 -15.378906 19.96875 -14.640625 C 20.582031 -13.910156 21.050781 -13.0625 21.375 -12.09375 C 21.695312 -11.132812 21.859375 -10.070312 21.859375 -8.90625 C 21.859375 -7.726562 21.695312 -6.660156 21.375 -5.703125 C 21.050781 -4.742188 20.582031 -3.894531 19.96875 -3.15625 C 19.363281 -2.414062 18.628906 -1.789062 17.765625 -1.28125 C 16.910156 -0.78125 15.941406 -0.398438 14.859375 -0.140625 C 13.773438 0.109375 12.597656 0.234375 11.328125 0.234375 Z M 11.328125 -3.6875 C 12.191406 -3.6875 12.972656 -3.785156 13.671875 -3.984375 C 14.367188 -4.191406 14.960938 -4.503906 15.453125 -4.921875 C 15.953125 -5.347656 16.332031 -5.890625 16.59375 -6.546875 C 16.851562 -7.203125 16.984375 -7.988281 16.984375 -8.90625 C 16.984375 -9.8125 16.851562 -10.59375 16.59375 -11.25 C 16.332031 -11.90625 15.953125 -12.441406 15.453125 -12.859375 C 14.960938 -13.285156 14.367188 -13.597656 13.671875 -13.796875 C 12.972656 -13.992188 12.191406 -14.09375 11.328125 -14.09375 C 10.460938 -14.09375 9.6875 -13.992188 9 -13.796875 C 8.3125 -13.597656 7.722656 -13.285156 7.234375 -12.859375 C 6.742188 -12.441406 6.367188 -11.90625 6.109375 -11.25 C 5.847656 -10.59375 5.71875 -9.8125 5.71875 -8.90625 C 5.71875 -7.988281 5.847656 -7.203125 6.109375 -6.546875 C 6.367188 -5.890625 6.742188 -5.347656 7.234375 -4.921875 C 7.722656 -4.503906 8.3125 -4.191406 9 -3.984375 C 9.6875 -3.785156 10.460938 -3.6875 11.328125 -3.6875 Z M 11.328125 -3.6875 "/></g></g><g style="fill:#ffffff;fill-opacity:1;"><g transform="translate(145.074984, 22.631989)"><path style="stroke:none" d="M 11 0.25 C 10.164062 0.25 9.363281 0.203125 8.59375 0.109375 C 7.832031 0.0234375 7.117188 -0.109375 6.453125 -0.296875 C 5.796875 -0.492188 5.195312 -0.757812 4.65625 -1.09375 C 4.125 -1.425781 3.664062 -1.835938 3.28125 -2.328125 C 2.894531 -2.828125 2.597656 -3.414062 2.390625 -4.09375 C 2.179688 -4.769531 2.078125 -5.550781 2.078125 -6.4375 L 2.078125 -17.796875 L 7.046875 -17.796875 L 7.046875 -6.9375 C 7.046875 -6.4375 7.109375 -6 7.234375 -5.625 C 7.367188 -5.257812 7.554688 -4.953125 7.796875 -4.703125 C 8.035156 -4.453125 8.320312 -4.25 8.65625 -4.09375 C 8.988281 -3.945312 9.347656 -3.835938 9.734375 -3.765625 C 10.128906 -3.703125 10.550781 -3.671875 11 -3.671875 C 11.4375 -3.671875 11.851562 -3.703125 12.25 -3.765625 C 12.644531 -3.835938 13.003906 -3.945312 13.328125 -4.09375 C 13.660156 -4.25 13.945312 -4.453125 14.1875 -4.703125 C 14.425781 -4.953125 14.609375 -5.257812 14.734375 -5.625 C 14.867188 -6 14.9375 -6.4375 14.9375 -6.9375 L 14.9375 -17.796875 L 19.921875 -17.796875 L 19.921875 -6.4375 C 19.921875 -5.550781 19.816406 -4.769531 19.609375 -4.09375 C 19.398438 -3.414062 19.101562 -2.828125 18.71875 -2.328125 C 18.332031 -1.835938 17.867188 -1.425781 17.328125 -1.09375 C 16.796875 -0.757812 16.195312 -0.492188 15.53125 -0.296875 C 14.863281 -0.109375 14.148438 0.0234375 13.390625 0.109375 C 12.628906 0.203125 11.832031 0.25 11 0.25 Z M 11 0.25 "/></g></g><g style="fill:#ffffff;fill-opacity:1;"><g transform="translate(167.055716, 22.631989)"><path style="stroke:none" d="M 2.03125 0 L 2.03125 -17.796875 L 11.53125 -17.796875 C 12.863281 -17.796875 14.054688 -17.660156 15.109375 -17.390625 C 16.160156 -17.117188 17.078125 -16.726562 17.859375 -16.21875 C 18.640625 -15.707031 19.285156 -15.085938 19.796875 -14.359375 C 20.304688 -13.628906 20.6875 -12.804688 20.9375 -11.890625 C 21.1875 -10.972656 21.3125 -9.976562 21.3125 -8.90625 C 21.3125 -7.820312 21.1875 -6.816406 20.9375 -5.890625 C 20.6875 -4.972656 20.304688 -4.148438 19.796875 -3.421875 C 19.285156 -2.703125 18.640625 -2.085938 17.859375 -1.578125 C 17.078125 -1.066406 16.160156 -0.675781 15.109375 -0.40625 C 14.054688 -0.132812 12.863281 0 11.53125 0 Z M 7.109375 -4.046875 L 11.25 -4.046875 C 12.363281 -4.046875 13.265625 -4.222656 13.953125 -4.578125 C 14.648438 -4.929688 15.160156 -5.46875 15.484375 -6.1875 C 15.804688 -6.90625 15.96875 -7.8125 15.96875 -8.90625 C 15.96875 -9.976562 15.804688 -10.875 15.484375 -11.59375 C 15.160156 -12.320312 14.648438 -12.863281 13.953125 -13.21875 C 13.265625 -13.582031 12.363281 -13.765625 11.25 -13.765625 L 7.109375 -13.765625 Z M 7.109375 -4.046875 "/></g></g></g></g></g></svg>